<svg xmlns="http://www.w3.org/2000/svg" xml:space="preserve" viewBox="0 0 300 300" fill="#1f2937">
  <path d="M150 300.025c40.205 0 77.86-15.47 106.25-43.775s43.775-66.045 43.775-106.25-15.47-77.86-43.775-106.25S190.205-.025 150-.025 72.14 15.445 43.75 43.75-.025 109.795-.025 150s15.47 77.86 43.775 106.25 66.045 43.775 106.25 43.775zm8.585-25.5c-2.89.34-5.78.34-8.585.34-3.91 0-7.905-.34-11.815-.68-12.92-20.06-22.61-41.65-28.39-64.26h63.495c2.125 5.355 6.12 10.37 10.795 13.6-6.12 18.02-14.705 34.85-25.5 51zm34.085-7.14c6.8-12.58 12.24-25.16 16.49-38.42 10.37-2.125 18.7-9.35 22.61-19.04h27.625c-14.28 26.18-38.335 46.665-66.725 57.46zM274.525 150c0 11.815-1.785 23.29-4.675 34.425h-38.76c-2.125-4.675-5.78-9.01-10.03-12.24.68-7.905 1.105-15.81 1.105-23.715 0-11.135-.68-22.27-2.125-32.98h49.555c3.485 10.795 4.93 22.695 4.93 34.51zM259.48 90.075h-43.775c-4.675-19.72-11.475-38.42-20.825-56.355 27.285 10.455 50.235 30.855 64.6 56.355zm-62.475 58.48c0 6.12-.34 12.24-.68 18.275-10.03 2.125-18.275 8.585-22.27 17.595H104.78c-1.445-10.795-2.55-21.93-2.55-32.64 0-6.8.34-13.6 1.105-20.485 9.35-1.785 16.83-7.905 21.505-15.81h69.955c1.53 10.795 2.21 21.93 2.21 33.065zM140.65 25.815c3.23-.34 6.46-.34 9.35-.34 3.57 0 7.14 0 10.795.34 12.92 20.06 22.61 41.65 28.39 64.26H126.71c-2.125-6.12-6.12-11.475-11.135-15.47 6.46-17.17 14.705-33.32 25.075-48.79zm-34.085 7.225c-6.12 11.475-11.475 23.715-15.81 35.87-11.135 2.125-20.06 10.37-23.715 20.825H40.945c13.94-25.5 37.315-45.985 65.62-56.695zM25.475 150c0-11.815 1.785-23.715 5.015-34.425h39.1c2.125 3.91 5.355 7.565 9.01 10.37-.68 8.585-1.445 17.255-1.445 25.84 0 11.135.68 21.93 2.125 32.64H30.49c-3.57-11.135-5.015-22.61-5.015-34.425zm58.14 59.585c4.675 19.38 11.475 38.42 20.825 56.355-27.285-10.795-49.895-30.855-63.835-56.355h43.01z"/>
</svg>