<svg xmlns="http://www.w3.org/2000/svg" xml:space="preserve" viewBox="0 0 300 54" fill="#fff">
  <path d="M79.207 37.173c-3.96 0-7.48-1.32-10.12-4.18-2.64-2.64-4.18-6.16-4.18-10.12 0-3.96 1.32-7.26 4.18-10.12 2.64-2.64 6.16-4.18 10.12-4.18 3.96 0 7.48 1.32 10.34 3.74l-3.74 4.18c-1.98-1.54-4.18-2.2-6.6-2.2-2.64 0-4.62.88-6.16 2.42s-2.42 3.52-2.42 5.94c0 2.64.88 4.84 2.42 6.38s3.74 2.42 6.16 2.42c1.98 0 3.52-.44 4.62-1.1v-4.84h-3.74v-5.28h9.46v13.2c-2.86 2.64-6.38 3.74-10.34 3.74zm20.68-18.92v2.2c1.32-1.32 3.08-1.98 5.06-1.98.66 0 1.1 0 1.76.22l-.88 5.28c-.66-.66-1.54-.88-2.64-.88-1.32 0-2.42 1.1-3.3 2.86v11.66h-5.28v-18.48l5.28-.88zm18.7 19.14c-2.86 0-5.06-.88-6.82-2.86-1.76-1.76-2.64-4.18-2.64-6.82 0-2.86.88-5.06 2.64-6.82 1.76-1.76 4.18-2.86 6.82-2.86 2.86 0 5.06.88 6.82 2.86 1.76 1.76 2.86 4.18 2.86 6.82 0 2.86-.88 5.06-2.86 6.82-1.76 1.98-3.96 2.86-6.82 2.86zm0-4.62c1.32 0 2.64-.44 3.52-1.54.88-.88 1.32-2.2 1.32-3.52 0-1.54-.44-2.64-1.32-3.52-.88-.88-1.98-1.54-3.52-1.54-1.32 0-2.64.44-3.52 1.54-.88.88-1.32 2.2-1.32 3.52 0 1.54.44 2.64 1.32 3.52.88 1.1 1.98 1.54 3.52 1.54zm24.64-2.2v-12.32h5.28v18.92h-5.28v-1.76c-1.32 1.1-2.86 1.76-4.62 1.76-2.42 0-4.18-.66-5.5-2.2-1.32-1.54-1.98-3.08-1.98-5.06v-11.66h5.28v10.34c0 1.32.22 2.2.88 2.86.66.66 1.54 1.1 2.86 1.1 1.54 0 2.42-.66 3.08-1.98zm15.18 14.74h-5.28v-26.4l5.28-.66v1.54a6.577 6.577 0 0 1 4.18-1.54c2.86 0 5.28.88 6.82 2.86 1.76 1.98 2.64 4.18 2.64 6.6 0 2.64-.88 4.84-2.64 6.6-1.76 1.98-3.96 2.86-6.82 2.86-1.98-.22-3.3-.66-4.18-1.54v9.68zm0-19.36v3.08c.22 2.2 1.54 3.3 3.96 3.74 3.08-.22 4.84-1.76 5.06-4.62-.22-3.52-1.76-5.5-5.06-5.5-2.42.44-3.74 1.54-3.96 3.3zm25.96 11.44c-2.86 0-5.06-.88-6.82-2.86-1.76-1.76-2.86-4.18-2.86-6.82 0-2.86.88-5.06 2.86-6.82 1.76-1.76 4.18-2.86 6.82-2.86 2.86 0 5.06.88 6.82 2.86 1.76 1.76 2.86 4.18 2.86 6.82 0 2.86-.88 5.06-2.86 6.82-1.76 1.98-3.96 2.86-6.82 2.86zm0-4.62c1.54 0 2.64-.44 3.52-1.54.88-.88 1.32-2.2 1.32-3.52 0-1.54-.44-2.64-1.32-3.52-.88-.88-1.98-1.54-3.52-1.54-1.32 0-2.64.44-3.52 1.54-.88.88-1.32 2.2-1.32 3.52 0 1.54.44 2.64 1.32 3.52 1.1 1.1 2.2 1.54 3.52 1.54zm18.7-7.7v12.1h-5.28v-18.48l5.28-.66v1.76c1.1-1.1 2.64-1.76 4.62-1.76 2.42 0 4.18.66 5.5 2.2 1.32-1.54 3.52-2.2 6.16-2.2 2.42 0 4.18.66 5.5 2.2 1.32 1.54 1.98 3.08 1.98 5.06v11.66h-5.28v-10.12c0-1.32-.22-2.2-.88-2.86-.66-.66-1.54-1.1-2.86-1.1-1.1 0-1.98.66-2.64 1.98 0 .44-.22.88-.22 1.1v11.22h-5.28v-10.34c0-1.32-.22-2.2-.88-2.86-.66-.66-1.54-1.1-2.86-1.1-1.1 0-1.98.66-2.86 2.2zm30.8-1.32-2.2-3.3c2.42-1.54 5.28-2.2 8.36-2.2 2.2 0 4.18.66 5.28 1.98 1.32 1.32 1.98 3.08 1.98 5.72v11.44h-5.28v-1.76c-1.54 1.1-2.86 1.54-4.18 1.54-2.42 0-4.4-.44-5.72-1.54-1.32-1.1-1.98-2.64-1.98-4.4 0-1.76.66-3.3 1.76-4.84 1.1-1.32 3.08-1.98 5.72-1.98 1.32 0 2.64.44 4.18 1.1v-.66c0-1.32-1.1-2.2-3.08-2.2-1.76 0-3.52.44-4.84 1.1zm8.36 7.7v-2.2c-.44-.88-1.76-1.54-3.52-1.54-2.2.22-3.52 1.1-3.52 2.64.22 1.54 1.32 2.42 3.52 2.42 1.76.22 3.08-.22 3.52-1.32zm15.4-6.38v12.1h-5.28v-18.48l5.28-.66v1.76c1.32-1.1 2.86-1.76 4.62-1.76 2.42 0 4.18.66 5.5 2.2 1.32 1.54 1.98 3.08 1.98 5.06v11.66h-5.28v-10.12c0-1.32-.22-2.2-.88-2.86-.66-.66-1.54-1.1-2.86-1.1-1.32 0-2.42.88-3.08 2.2zm21.56 12.1h-5.28v-18.92h5.28v18.92zm-5.5-23.54c0 .66.22 1.32.66 1.98.44.44 1.32.66 2.2.66.88 0 1.54-.22 1.98-.66.44-.44.66-1.1.66-1.98 0-.66-.22-1.32-.66-1.98-.44-.44-1.32-.88-2.2-.88-.88 0-1.54.22-1.98.88-.22.66-.66 1.32-.66 1.98zm12.76 10.12-1.98-3.3c2.42-1.54 5.28-2.2 8.36-2.2 2.2 0 4.18.66 5.5 1.98 1.32 1.32 1.98 3.08 1.98 5.72v11.44h-5.28v-1.76c-1.54 1.1-2.86 1.54-4.18 1.54-2.64 0-4.4-.44-5.72-1.54-1.32-1.1-1.98-2.64-1.98-4.4 0-1.76.66-3.3 1.76-4.84 1.1-1.32 3.08-1.98 5.72-1.98 1.32 0 2.64.44 4.18 1.1v-.66c0-1.32-1.1-2.2-3.08-2.2-2.42 0-4.18.44-5.28 1.1zm8.36 7.7v-2.2c-.44-.88-1.76-1.54-3.52-1.54-2.2.22-3.52 1.1-3.52 2.64.22 1.54 1.32 2.42 3.52 2.42 1.76.22 2.86-.22 3.52-1.32zM27.008 53.996c7.239 0 14.011-2.782 19.125-7.878 5.097-5.097 7.878-11.887 7.878-19.125S51.23 12.982 46.116 7.885C41.019 2.79 34.23.007 26.99.007S12.98 2.79 7.866 7.885C2.77 12.982-.012 19.771-.012 27.01c0 7.239 2.782 14.011 7.878 19.125s11.903 7.86 19.142 7.86zm1.538-4.579c-.518.07-1.037.07-1.555.07-.708 0-1.417-.07-2.125-.122-2.332-3.61-4.077-7.497-5.097-11.557h11.437a5.644 5.644 0 0 0 1.935 2.453c-1.105 3.213-2.66 6.254-4.595 9.156zm6.133-1.295a41.05 41.05 0 0 0 2.971-6.91c1.866-.381 3.352-1.677 4.078-3.422h4.975c-2.591 4.717-6.91 8.397-12.024 10.332zm14.737-21.13c0 2.126-.329 4.199-.847 6.203h-6.962c-.38-.847-1.037-1.607-1.814-2.194.12-1.417.19-2.85.19-4.267a45.02 45.02 0 0 0-.38-5.944h8.914c.64 1.953.899 4.078.899 6.203zm-2.713-10.78h-7.878a43.814 43.814 0 0 0-3.749-10.14c4.907 1.865 9.036 5.562 11.627 10.14zM35.456 26.734c0 1.105-.069 2.194-.12 3.3-1.815.38-3.3 1.554-4.009 3.16H18.854c-.26-1.934-.45-3.938-.45-5.873 0-1.227.07-2.453.19-3.68 1.676-.328 3.041-1.417 3.87-2.85H35.06c.276 1.952.397 3.956.397 5.943zm-10.14-22.08c.587-.069 1.157-.069 1.675-.069.64 0 1.296 0 1.935.07 2.332 3.61 4.077 7.48 5.114 11.557H22.793c-.38-1.105-1.106-2.073-2.004-2.781a43.096 43.096 0 0 1 4.526-8.777zM19.181 5.95a47.683 47.683 0 0 0-2.85 6.461c-2.005.38-3.611 1.866-4.268 3.75H7.348c2.54-4.596 6.738-8.276 11.834-10.21zM4.584 26.993c0-2.125.328-4.268.898-6.203h7.049c.38.709.967 1.365 1.606 1.866-.12 1.555-.259 3.093-.259 4.648 0 2.004.121 3.939.38 5.874H5.482c-.64-1.987-.898-4.043-.898-6.185zM15.053 37.72c.847 3.49 2.073 6.91 3.749 10.141-4.907-1.934-8.984-5.563-11.506-10.14h7.757z"/>
</svg>