<svg xmlns="http://www.w3.org/2000/svg" xml:space="preserve" viewBox="0 0 32 32">
  <path fill="#116bc0" d="M16 32C7.16 32 0 24.84 0 16S7.16 0 16 0s16 7.16 16 16-7.16 16-16 16z"/>
  <path fill="#fff" d="M15.998 28c3.213 0 6.23-1.233 8.5-3.502 2.269-2.27 3.502-5.279 3.502-8.5 0-3.213-1.233-6.23-3.502-8.5-2.27-2.27-5.279-3.502-8.5-3.502s-6.231 1.232-8.5 3.502c-2.27 2.27-3.502 5.278-3.502 8.5s1.232 6.23 3.502 8.5S12.785 28 15.998 28zm.688-2.04c-.23.025-.459.025-.688.025a8.53 8.53 0 0 1-.944-.06c-1.037-1.606-1.81-3.331-2.27-5.142h5.084c.17.434.484.833.858 1.088-.484 1.454-1.173 2.797-2.04 4.089zm2.729-.57a17.662 17.662 0 0 0 1.317-3.068 2.492 2.492 0 0 0 1.81-1.522h2.21c-1.147 2.091-3.068 3.723-5.337 4.59zm6.545-9.392c0 .943-.145 1.87-.374 2.754h-3.103a2.615 2.615 0 0 0-.807-.978 20.921 20.921 0 0 0-.085-4.539h3.969c.289.867.4 1.82.4 2.763zm-1.207-4.794H21.25a19.257 19.257 0 0 0-1.666-4.505c2.184.833 4.02 2.465 5.168 4.505zm-4.99 4.683c0 .485-.025.978-.06 1.462-.807.17-1.461.689-1.776 1.403h-5.542a19.271 19.271 0 0 1-.204-2.61c0-.544.026-1.088.085-1.64.748-.145 1.352-.63 1.726-1.267h5.601c.11.867.17 1.76.17 2.652zM15.25 6.07c.255-.026.518-.026.748-.026.289 0 .578 0 .858.026 1.037 1.606 1.81 3.332 2.27 5.142h-4.998a2.694 2.694 0 0 0-.893-1.232 19.34 19.34 0 0 1 2.015-3.91zm-2.72.57a22.164 22.164 0 0 0-1.267 2.872c-.892.17-1.606.833-1.895 1.666h-2.1C8.39 9.138 10.26 7.506 12.53 6.64zm-6.494 9.358a9.8 9.8 0 0 1 .399-2.754h3.128c.17.314.434.603.714.833-.06.688-.119 1.377-.119 2.065 0 .893.06 1.751.17 2.61H6.427a9.3 9.3 0 0 1-.391-2.754zm4.649 4.768a19.836 19.836 0 0 0 1.666 4.505 10.03 10.03 0 0 1-5.108-4.505h3.442z"/>
</svg>